<svg xmlns="http://www.w3.org/2000/svg" xmlns:xlink="http://www.w3.org/1999/xlink" width="406" zoomAndPan="magnify" viewBox="0 0 304.5 79.499998" height="106" preserveAspectRatio="xMidYMid meet" version="1.0"><defs><g/><clipPath id="d95982859c"><path d="M 151.464844 19.671875 L 160.023438 19.671875 L 160.023438 28.230469 L 151.464844 28.230469 Z M 151.464844 19.671875 " clip-rule="nonzero"/></clipPath><clipPath id="d4b159cd4c"><path d="M 164.605469 19.671875 L 173.164062 19.671875 L 173.164062 28.230469 L 164.605469 28.230469 Z M 164.605469 19.671875 " clip-rule="nonzero"/></clipPath><clipPath id="e74b95dd8b"><path d="M 177.746094 19.671875 L 186.300781 19.671875 L 186.300781 28.230469 L 177.746094 28.230469 Z M 177.746094 19.671875 " clip-rule="nonzero"/></clipPath></defs><g fill="#000000" fill-opacity="1"><g transform="translate(48.571128, 47.632219)"><g><path d="M 1.828125 0 L 1.828125 -18.171875 L 8.125 -18.171875 C 8.9375 -18.171875 9.703125 -18.035156 10.421875 -17.765625 C 11.140625 -17.492188 11.769531 -17.113281 12.3125 -16.625 C 12.851562 -16.132812 13.28125 -15.546875 13.59375 -14.859375 C 13.90625 -14.171875 14.0625 -13.414062 14.0625 -12.59375 C 14.0625 -11.78125 13.90625 -11.03125 13.59375 -10.34375 C 13.28125 -9.65625 12.851562 -9.066406 12.3125 -8.578125 C 11.769531 -8.085938 11.140625 -7.707031 10.421875 -7.4375 C 9.703125 -7.164062 8.9375 -7.03125 8.125 -7.03125 L 4.6875 -7.03125 L 4.6875 0 Z M 8.203125 -9.765625 C 8.671875 -9.765625 9.085938 -9.84375 9.453125 -10 C 9.828125 -10.164062 10.140625 -10.382812 10.390625 -10.65625 C 10.648438 -10.925781 10.847656 -11.226562 10.984375 -11.5625 C 11.117188 -11.90625 11.1875 -12.25 11.1875 -12.59375 C 11.1875 -12.945312 11.117188 -13.289062 10.984375 -13.625 C 10.847656 -13.96875 10.648438 -14.269531 10.390625 -14.53125 C 10.140625 -14.789062 9.828125 -15.003906 9.453125 -15.171875 C 9.085938 -15.335938 8.671875 -15.421875 8.203125 -15.421875 L 4.6875 -15.421875 L 4.6875 -9.765625 Z M 8.203125 -9.765625 "/></g></g></g><g fill="#000000" fill-opacity="1"><g transform="translate(63.234742, 47.632219)"><g><path d="M 1.421875 -12.4375 L 4.078125 -12.4375 L 4.078125 -10.5625 L 4.234375 -10.5625 C 4.390625 -10.875 4.597656 -11.171875 4.859375 -11.453125 C 5.117188 -11.734375 5.414062 -11.96875 5.75 -12.15625 C 6.082031 -12.351562 6.425781 -12.503906 6.78125 -12.609375 C 7.144531 -12.722656 7.5 -12.78125 7.84375 -12.78125 C 8.25 -12.78125 8.59375 -12.75 8.875 -12.6875 C 9.164062 -12.625 9.429688 -12.53125 9.671875 -12.40625 L 8.859375 -9.796875 C 8.671875 -9.878906 8.460938 -9.941406 8.234375 -9.984375 C 8.003906 -10.023438 7.726562 -10.046875 7.40625 -10.046875 C 6.945312 -10.046875 6.523438 -9.953125 6.140625 -9.765625 C 5.765625 -9.578125 5.429688 -9.320312 5.140625 -9 C 4.859375 -8.6875 4.632812 -8.304688 4.46875 -7.859375 C 4.3125 -7.421875 4.234375 -6.957031 4.234375 -6.46875 L 4.234375 0 L 1.421875 0 Z M 1.421875 -12.4375 "/></g></g></g><g fill="#000000" fill-opacity="1"><g transform="translate(73.002028, 47.632219)"><g><path d="M 6.140625 0.40625 C 5.378906 0.40625 4.691406 0.300781 4.078125 0.09375 C 3.472656 -0.101562 2.941406 -0.363281 2.484375 -0.6875 C 2.023438 -1.019531 1.640625 -1.398438 1.328125 -1.828125 C 1.015625 -2.253906 0.773438 -2.691406 0.609375 -3.140625 L 3.140625 -4.21875 C 3.429688 -3.488281 3.847656 -2.945312 4.390625 -2.59375 C 4.929688 -2.25 5.515625 -2.078125 6.140625 -2.078125 C 6.847656 -2.078125 7.40625 -2.21875 7.8125 -2.5 C 8.21875 -2.789062 8.421875 -3.113281 8.421875 -3.46875 C 8.421875 -3.832031 8.269531 -4.144531 7.96875 -4.40625 C 7.664062 -4.664062 7.09375 -4.894531 6.25 -5.09375 L 4.46875 -5.53125 C 4.070312 -5.613281 3.675781 -5.742188 3.28125 -5.921875 C 2.882812 -6.097656 2.515625 -6.328125 2.171875 -6.609375 C 1.835938 -6.890625 1.566406 -7.226562 1.359375 -7.625 C 1.148438 -8.019531 1.046875 -8.488281 1.046875 -9.03125 C 1.046875 -9.644531 1.175781 -10.1875 1.4375 -10.65625 C 1.695312 -11.132812 2.054688 -11.53125 2.515625 -11.84375 C 2.972656 -12.164062 3.5 -12.410156 4.09375 -12.578125 C 4.695312 -12.753906 5.335938 -12.84375 6.015625 -12.84375 C 6.566406 -12.84375 7.101562 -12.78125 7.625 -12.65625 C 8.144531 -12.539062 8.625 -12.363281 9.0625 -12.125 C 9.5 -11.894531 9.890625 -11.597656 10.234375 -11.234375 C 10.585938 -10.867188 10.863281 -10.441406 11.0625 -9.953125 L 8.578125 -8.90625 C 8.335938 -9.445312 7.960938 -9.835938 7.453125 -10.078125 C 6.953125 -10.328125 6.4375 -10.453125 5.90625 -10.453125 C 5.675781 -10.453125 5.4375 -10.421875 5.1875 -10.359375 C 4.945312 -10.304688 4.726562 -10.222656 4.53125 -10.109375 C 4.332031 -10.003906 4.171875 -9.863281 4.046875 -9.6875 C 3.921875 -9.519531 3.859375 -9.335938 3.859375 -9.140625 C 3.859375 -8.796875 4.003906 -8.523438 4.296875 -8.328125 C 4.597656 -8.140625 5.050781 -7.96875 5.65625 -7.8125 L 7.5625 -7.328125 C 8.84375 -7.003906 9.785156 -6.515625 10.390625 -5.859375 C 10.992188 -5.210938 11.296875 -4.453125 11.296875 -3.578125 C 11.296875 -3.035156 11.171875 -2.523438 10.921875 -2.046875 C 10.679688 -1.578125 10.332031 -1.15625 9.875 -0.78125 C 9.414062 -0.414062 8.867188 -0.128906 8.234375 0.078125 C 7.597656 0.296875 6.898438 0.40625 6.140625 0.40625 Z M 6.140625 0.40625 "/></g></g></g><g fill="#000000" fill-opacity="1"><g transform="translate(84.900356, 47.632219)"><g><path d="M 12.9375 -2.96875 C 12.414062 -2 11.671875 -1.191406 10.703125 -0.546875 C 9.742188 0.0859375 8.5625 0.40625 7.15625 0.40625 C 6.226562 0.40625 5.367188 0.242188 4.578125 -0.078125 C 3.796875 -0.410156 3.113281 -0.875 2.53125 -1.46875 C 1.957031 -2.0625 1.507812 -2.757812 1.1875 -3.5625 C 0.863281 -4.363281 0.703125 -5.25 0.703125 -6.21875 C 0.703125 -7.113281 0.851562 -7.960938 1.15625 -8.765625 C 1.46875 -9.566406 1.894531 -10.269531 2.4375 -10.875 C 2.988281 -11.476562 3.65625 -11.957031 4.4375 -12.3125 C 5.21875 -12.664062 6.082031 -12.84375 7.03125 -12.84375 C 7.988281 -12.84375 8.84375 -12.679688 9.59375 -12.359375 C 10.351562 -12.035156 10.992188 -11.585938 11.515625 -11.015625 C 12.046875 -10.441406 12.445312 -9.75 12.71875 -8.9375 C 13 -8.125 13.140625 -7.234375 13.140625 -6.265625 C 13.140625 -6.179688 13.140625 -6.109375 13.140625 -6.046875 C 13.128906 -5.953125 13.125 -5.875 13.125 -5.8125 C 13.101562 -5.738281 13.09375 -5.671875 13.09375 -5.609375 L 3.53125 -5.609375 C 3.582031 -5.015625 3.722656 -4.5 3.953125 -4.0625 C 4.191406 -3.625 4.484375 -3.257812 4.828125 -2.96875 C 5.179688 -2.675781 5.566406 -2.460938 5.984375 -2.328125 C 6.410156 -2.191406 6.828125 -2.125 7.234375 -2.125 C 8.046875 -2.125 8.710938 -2.316406 9.234375 -2.703125 C 9.753906 -3.097656 10.1875 -3.582031 10.53125 -4.15625 Z M 10.328125 -7.765625 C 10.296875 -8.015625 10.210938 -8.296875 10.078125 -8.609375 C 9.953125 -8.921875 9.757812 -9.207031 9.5 -9.46875 C 9.238281 -9.738281 8.898438 -9.960938 8.484375 -10.140625 C 8.066406 -10.328125 7.566406 -10.421875 6.984375 -10.421875 C 6.171875 -10.421875 5.472656 -10.179688 4.890625 -9.703125 C 4.304688 -9.222656 3.910156 -8.578125 3.703125 -7.765625 Z M 10.328125 -7.765625 "/></g></g></g><g fill="#000000" fill-opacity="1"><g transform="translate(98.75214, 47.632219)"><g><path d="M 9.28125 -1.515625 L 9.140625 -1.515625 C 8.765625 -1.023438 8.28125 -0.582031 7.6875 -0.1875 C 7.09375 0.207031 6.34375 0.40625 5.4375 0.40625 C 4.769531 0.40625 4.148438 0.296875 3.578125 0.078125 C 3.003906 -0.128906 2.503906 -0.421875 2.078125 -0.796875 C 1.660156 -1.179688 1.328125 -1.628906 1.078125 -2.140625 C 0.828125 -2.660156 0.703125 -3.234375 0.703125 -3.859375 C 0.703125 -4.515625 0.832031 -5.101562 1.09375 -5.625 C 1.363281 -6.15625 1.726562 -6.597656 2.1875 -6.953125 C 2.65625 -7.304688 3.210938 -7.578125 3.859375 -7.765625 C 4.503906 -7.960938 5.195312 -8.0625 5.9375 -8.0625 C 6.769531 -8.0625 7.460938 -7.984375 8.015625 -7.828125 C 8.578125 -7.671875 9 -7.523438 9.28125 -7.390625 L 9.28125 -7.859375 C 9.28125 -8.234375 9.203125 -8.582031 9.046875 -8.90625 C 8.890625 -9.226562 8.671875 -9.503906 8.390625 -9.734375 C 8.109375 -9.960938 7.789062 -10.140625 7.4375 -10.265625 C 7.082031 -10.390625 6.707031 -10.453125 6.3125 -10.453125 C 5.6875 -10.453125 5.125 -10.328125 4.625 -10.078125 C 4.125 -9.835938 3.679688 -9.445312 3.296875 -8.90625 L 1.0625 -10.375 C 1.65625 -11.1875 2.390625 -11.800781 3.265625 -12.21875 C 4.148438 -12.632812 5.148438 -12.84375 6.265625 -12.84375 C 8.109375 -12.84375 9.53125 -12.382812 10.53125 -11.46875 C 11.539062 -10.550781 12.046875 -9.25 12.046875 -7.5625 L 12.046875 0 L 9.28125 0 Z M 9.28125 -5.171875 C 8.914062 -5.390625 8.503906 -5.566406 8.046875 -5.703125 C 7.585938 -5.835938 7.0625 -5.90625 6.46875 -5.90625 C 5.59375 -5.90625 4.890625 -5.703125 4.359375 -5.296875 C 3.835938 -4.890625 3.578125 -4.398438 3.578125 -3.828125 C 3.578125 -3.523438 3.644531 -3.257812 3.78125 -3.03125 C 3.914062 -2.800781 4.085938 -2.601562 4.296875 -2.4375 C 4.515625 -2.269531 4.757812 -2.140625 5.03125 -2.046875 C 5.3125 -1.960938 5.597656 -1.921875 5.890625 -1.921875 C 6.347656 -1.921875 6.78125 -2.007812 7.1875 -2.1875 C 7.601562 -2.375 7.960938 -2.613281 8.265625 -2.90625 C 8.578125 -3.195312 8.820312 -3.535156 9 -3.921875 C 9.1875 -4.316406 9.28125 -4.734375 9.28125 -5.171875 Z M 9.28125 -5.171875 "/></g></g></g><g fill="#000000" fill-opacity="1"><g transform="translate(112.020421, 47.632219)"><g><path d="M 1.421875 -12.4375 L 4.078125 -12.4375 L 4.078125 -10.5625 L 4.234375 -10.5625 C 4.390625 -10.875 4.597656 -11.171875 4.859375 -11.453125 C 5.117188 -11.734375 5.414062 -11.96875 5.75 -12.15625 C 6.082031 -12.351562 6.425781 -12.503906 6.78125 -12.609375 C 7.144531 -12.722656 7.5 -12.78125 7.84375 -12.78125 C 8.25 -12.78125 8.59375 -12.75 8.875 -12.6875 C 9.164062 -12.625 9.429688 -12.53125 9.671875 -12.40625 L 8.859375 -9.796875 C 8.671875 -9.878906 8.460938 -9.941406 8.234375 -9.984375 C 8.003906 -10.023438 7.726562 -10.046875 7.40625 -10.046875 C 6.945312 -10.046875 6.523438 -9.953125 6.140625 -9.765625 C 5.765625 -9.578125 5.429688 -9.320312 5.140625 -9 C 4.859375 -8.6875 4.632812 -8.304688 4.46875 -7.859375 C 4.3125 -7.421875 4.234375 -6.957031 4.234375 -6.46875 L 4.234375 0 L 1.421875 0 Z M 1.421875 -12.4375 "/></g></g></g><g fill="#000000" fill-opacity="1"><g transform="translate(121.788686, 47.632219)"><g><path d="M 0 0 Z M 0 0 "/></g></g></g><g fill="#000000" fill-opacity="1"><g transform="translate(127.369991, 47.632219)"><g><path d="M 7.1875 0.40625 C 6.457031 0.40625 5.75 0.296875 5.0625 0.078125 C 4.375 -0.128906 3.738281 -0.441406 3.15625 -0.859375 C 2.570312 -1.285156 2.0625 -1.8125 1.625 -2.4375 C 1.1875 -3.0625 0.847656 -3.789062 0.609375 -4.625 L 3.34375 -5.734375 C 3.46875 -5.265625 3.644531 -4.820312 3.875 -4.40625 C 4.101562 -3.988281 4.378906 -3.628906 4.703125 -3.328125 C 5.035156 -3.023438 5.40625 -2.78125 5.8125 -2.59375 C 6.226562 -2.414062 6.691406 -2.328125 7.203125 -2.328125 C 7.628906 -2.328125 8.035156 -2.382812 8.421875 -2.5 C 8.816406 -2.613281 9.15625 -2.78125 9.4375 -3 C 9.726562 -3.21875 9.960938 -3.484375 10.140625 -3.796875 C 10.316406 -4.117188 10.40625 -4.492188 10.40625 -4.921875 C 10.40625 -5.296875 10.335938 -5.632812 10.203125 -5.9375 C 10.066406 -6.238281 9.851562 -6.515625 9.5625 -6.765625 C 9.28125 -7.023438 8.898438 -7.269531 8.421875 -7.5 C 7.953125 -7.726562 7.382812 -7.960938 6.71875 -8.203125 L 5.578125 -8.609375 C 5.085938 -8.773438 4.582031 -8.992188 4.0625 -9.265625 C 3.550781 -9.546875 3.085938 -9.882812 2.671875 -10.28125 C 2.265625 -10.6875 1.925781 -11.160156 1.65625 -11.703125 C 1.394531 -12.242188 1.265625 -12.875 1.265625 -13.59375 C 1.265625 -14.269531 1.40625 -14.910156 1.6875 -15.515625 C 1.96875 -16.117188 2.359375 -16.644531 2.859375 -17.09375 C 3.367188 -17.550781 3.972656 -17.910156 4.671875 -18.171875 C 5.378906 -18.441406 6.15625 -18.578125 7 -18.578125 C 7.882812 -18.578125 8.660156 -18.453125 9.328125 -18.203125 C 9.992188 -17.960938 10.554688 -17.65625 11.015625 -17.28125 C 11.472656 -16.90625 11.835938 -16.492188 12.109375 -16.046875 C 12.390625 -15.597656 12.597656 -15.179688 12.734375 -14.796875 L 10.15625 -13.703125 C 10.0625 -13.953125 9.9375 -14.207031 9.78125 -14.46875 C 9.625 -14.738281 9.414062 -14.972656 9.15625 -15.171875 C 8.90625 -15.378906 8.601562 -15.550781 8.25 -15.6875 C 7.90625 -15.820312 7.503906 -15.890625 7.046875 -15.890625 C 6.640625 -15.890625 6.257812 -15.832031 5.90625 -15.71875 C 5.550781 -15.613281 5.242188 -15.457031 4.984375 -15.25 C 4.722656 -15.050781 4.515625 -14.816406 4.359375 -14.546875 C 4.210938 -14.273438 4.140625 -13.976562 4.140625 -13.65625 C 4.140625 -13.007812 4.40625 -12.488281 4.9375 -12.09375 C 5.46875 -11.695312 6.25 -11.320312 7.28125 -10.96875 L 8.421875 -10.5625 C 9.128906 -10.320312 9.78125 -10.039062 10.375 -9.71875 C 10.96875 -9.394531 11.484375 -9.007812 11.921875 -8.5625 C 12.367188 -8.113281 12.710938 -7.59375 12.953125 -7 C 13.203125 -6.40625 13.328125 -5.722656 13.328125 -4.953125 C 13.328125 -4.003906 13.132812 -3.191406 12.75 -2.515625 C 12.375 -1.847656 11.890625 -1.296875 11.296875 -0.859375 C 10.703125 -0.421875 10.039062 -0.101562 9.3125 0.09375 C 8.582031 0.300781 7.875 0.40625 7.1875 0.40625 Z M 7.1875 0.40625 "/></g></g></g><g fill="#000000" fill-opacity="1"><g transform="translate(141.678431, 47.632219)"><g><path d="M 1.421875 -12.4375 L 4.078125 -12.4375 L 4.078125 -10.765625 L 4.234375 -10.765625 C 4.628906 -11.367188 5.171875 -11.863281 5.859375 -12.25 C 6.554688 -12.644531 7.289062 -12.84375 8.0625 -12.84375 C 9 -12.84375 9.800781 -12.625 10.46875 -12.1875 C 11.132812 -11.757812 11.617188 -11.195312 11.921875 -10.5 C 12.347656 -11.164062 12.914062 -11.722656 13.625 -12.171875 C 14.332031 -12.617188 15.1875 -12.84375 16.1875 -12.84375 C 16.945312 -12.84375 17.601562 -12.71875 18.15625 -12.46875 C 18.71875 -12.226562 19.179688 -11.882812 19.546875 -11.4375 C 19.910156 -11 20.1875 -10.472656 20.375 -9.859375 C 20.5625 -9.242188 20.65625 -8.554688 20.65625 -7.796875 L 20.65625 0 L 17.84375 0 L 17.84375 -7.3125 C 17.84375 -8.394531 17.632812 -9.148438 17.21875 -9.578125 C 16.800781 -10.003906 16.195312 -10.21875 15.40625 -10.21875 C 14.945312 -10.21875 14.535156 -10.113281 14.171875 -9.90625 C 13.804688 -9.707031 13.492188 -9.4375 13.234375 -9.09375 C 12.984375 -8.75 12.789062 -8.347656 12.65625 -7.890625 C 12.519531 -7.429688 12.453125 -6.945312 12.453125 -6.4375 L 12.453125 0 L 9.640625 0 L 9.640625 -7.3125 C 9.640625 -8.394531 9.421875 -9.148438 8.984375 -9.578125 C 8.554688 -10.003906 7.9375 -10.21875 7.125 -10.21875 C 6.6875 -10.21875 6.289062 -10.113281 5.9375 -9.90625 C 5.582031 -9.707031 5.273438 -9.4375 5.015625 -9.09375 C 4.765625 -8.75 4.570312 -8.347656 4.4375 -7.890625 C 4.300781 -7.429688 4.234375 -6.945312 4.234375 -6.4375 L 4.234375 0 L 1.421875 0 Z M 1.421875 -12.4375 "/></g></g></g><g fill="#000000" fill-opacity="1"><g transform="translate(163.648478, 47.632219)"><g><path d="M 9.28125 -1.515625 L 9.140625 -1.515625 C 8.765625 -1.023438 8.28125 -0.582031 7.6875 -0.1875 C 7.09375 0.207031 6.34375 0.40625 5.4375 0.40625 C 4.769531 0.40625 4.148438 0.296875 3.578125 0.078125 C 3.003906 -0.128906 2.503906 -0.421875 2.078125 -0.796875 C 1.660156 -1.179688 1.328125 -1.628906 1.078125 -2.140625 C 0.828125 -2.660156 0.703125 -3.234375 0.703125 -3.859375 C 0.703125 -4.515625 0.832031 -5.101562 1.09375 -5.625 C 1.363281 -6.15625 1.726562 -6.597656 2.1875 -6.953125 C 2.65625 -7.304688 3.210938 -7.578125 3.859375 -7.765625 C 4.503906 -7.960938 5.195312 -8.0625 5.9375 -8.0625 C 6.769531 -8.0625 7.460938 -7.984375 8.015625 -7.828125 C 8.578125 -7.671875 9 -7.523438 9.28125 -7.390625 L 9.28125 -7.859375 C 9.28125 -8.234375 9.203125 -8.582031 9.046875 -8.90625 C 8.890625 -9.226562 8.671875 -9.503906 8.390625 -9.734375 C 8.109375 -9.960938 7.789062 -10.140625 7.4375 -10.265625 C 7.082031 -10.390625 6.707031 -10.453125 6.3125 -10.453125 C 5.6875 -10.453125 5.125 -10.328125 4.625 -10.078125 C 4.125 -9.835938 3.679688 -9.445312 3.296875 -8.90625 L 1.0625 -10.375 C 1.65625 -11.1875 2.390625 -11.800781 3.265625 -12.21875 C 4.148438 -12.632812 5.148438 -12.84375 6.265625 -12.84375 C 8.109375 -12.84375 9.53125 -12.382812 10.53125 -11.46875 C 11.539062 -10.550781 12.046875 -9.25 12.046875 -7.5625 L 12.046875 0 L 9.28125 0 Z M 9.28125 -5.171875 C 8.914062 -5.390625 8.503906 -5.566406 8.046875 -5.703125 C 7.585938 -5.835938 7.0625 -5.90625 6.46875 -5.90625 C 5.59375 -5.90625 4.890625 -5.703125 4.359375 -5.296875 C 3.835938 -4.890625 3.578125 -4.398438 3.578125 -3.828125 C 3.578125 -3.523438 3.644531 -3.257812 3.78125 -3.03125 C 3.914062 -2.800781 4.085938 -2.601562 4.296875 -2.4375 C 4.515625 -2.269531 4.757812 -2.140625 5.03125 -2.046875 C 5.3125 -1.960938 5.597656 -1.921875 5.890625 -1.921875 C 6.347656 -1.921875 6.78125 -2.007812 7.1875 -2.1875 C 7.601562 -2.375 7.960938 -2.613281 8.265625 -2.90625 C 8.578125 -3.195312 8.820312 -3.535156 9 -3.921875 C 9.1875 -4.316406 9.28125 -4.734375 9.28125 -5.171875 Z M 9.28125 -5.171875 "/></g></g></g><g fill="#000000" fill-opacity="1"><g transform="translate(176.91676, 47.632219)"><g><path d="M 1.421875 -12.4375 L 4.078125 -12.4375 L 4.078125 -10.5625 L 4.234375 -10.5625 C 4.390625 -10.875 4.597656 -11.171875 4.859375 -11.453125 C 5.117188 -11.734375 5.414062 -11.96875 5.75 -12.15625 C 6.082031 -12.351562 6.425781 -12.503906 6.78125 -12.609375 C 7.144531 -12.722656 7.5 -12.78125 7.84375 -12.78125 C 8.25 -12.78125 8.59375 -12.75 8.875 -12.6875 C 9.164062 -12.625 9.429688 -12.53125 9.671875 -12.40625 L 8.859375 -9.796875 C 8.671875 -9.878906 8.460938 -9.941406 8.234375 -9.984375 C 8.003906 -10.023438 7.726562 -10.046875 7.40625 -10.046875 C 6.945312 -10.046875 6.523438 -9.953125 6.140625 -9.765625 C 5.765625 -9.578125 5.429688 -9.320312 5.140625 -9 C 4.859375 -8.6875 4.632812 -8.304688 4.46875 -7.859375 C 4.3125 -7.421875 4.234375 -6.957031 4.234375 -6.46875 L 4.234375 0 L 1.421875 0 Z M 1.421875 -12.4375 "/></g></g></g><g fill="#000000" fill-opacity="1"><g transform="translate(186.684045, 47.632219)"><g><path d="M 2.796875 -9.953125 L 0.609375 -9.953125 L 0.609375 -12.4375 L 2.796875 -12.4375 L 2.796875 -16.234375 L 5.609375 -16.234375 L 5.609375 -12.4375 L 8.671875 -12.4375 L 8.671875 -9.953125 L 5.609375 -9.953125 L 5.609375 -4.421875 C 5.609375 -4.109375 5.640625 -3.828125 5.703125 -3.578125 C 5.773438 -3.328125 5.878906 -3.113281 6.015625 -2.9375 C 6.296875 -2.625 6.660156 -2.46875 7.109375 -2.46875 C 7.378906 -2.46875 7.585938 -2.488281 7.734375 -2.53125 C 7.890625 -2.570312 8.050781 -2.632812 8.21875 -2.71875 L 9.078125 -0.234375 C 8.722656 -0.0976562 8.351562 0.00390625 7.96875 0.078125 C 7.582031 0.160156 7.140625 0.203125 6.640625 0.203125 C 6.054688 0.203125 5.535156 0.109375 5.078125 -0.078125 C 4.617188 -0.265625 4.21875 -0.519531 3.875 -0.84375 C 3.15625 -1.5625 2.796875 -2.550781 2.796875 -3.8125 Z M 2.796875 -9.953125 "/></g></g></g><g fill="#91108c" fill-opacity="1"><g transform="translate(196.276396, 47.632219)"><g><path d="M 7.1875 0.40625 C 6.457031 0.40625 5.75 0.296875 5.0625 0.078125 C 4.375 -0.128906 3.738281 -0.441406 3.15625 -0.859375 C 2.570312 -1.285156 2.0625 -1.8125 1.625 -2.4375 C 1.1875 -3.0625 0.847656 -3.789062 0.609375 -4.625 L 3.34375 -5.734375 C 3.46875 -5.265625 3.644531 -4.820312 3.875 -4.40625 C 4.101562 -3.988281 4.378906 -3.628906 4.703125 -3.328125 C 5.035156 -3.023438 5.40625 -2.78125 5.8125 -2.59375 C 6.226562 -2.414062 6.691406 -2.328125 7.203125 -2.328125 C 7.628906 -2.328125 8.035156 -2.382812 8.421875 -2.5 C 8.816406 -2.613281 9.15625 -2.78125 9.4375 -3 C 9.726562 -3.21875 9.960938 -3.484375 10.140625 -3.796875 C 10.316406 -4.117188 10.40625 -4.492188 10.40625 -4.921875 C 10.40625 -5.296875 10.335938 -5.632812 10.203125 -5.9375 C 10.066406 -6.238281 9.851562 -6.515625 9.5625 -6.765625 C 9.28125 -7.023438 8.898438 -7.269531 8.421875 -7.5 C 7.953125 -7.726562 7.382812 -7.960938 6.71875 -8.203125 L 5.578125 -8.609375 C 5.085938 -8.773438 4.582031 -8.992188 4.0625 -9.265625 C 3.550781 -9.546875 3.085938 -9.882812 2.671875 -10.28125 C 2.265625 -10.6875 1.925781 -11.160156 1.65625 -11.703125 C 1.394531 -12.242188 1.265625 -12.875 1.265625 -13.59375 C 1.265625 -14.269531 1.40625 -14.910156 1.6875 -15.515625 C 1.96875 -16.117188 2.359375 -16.644531 2.859375 -17.09375 C 3.367188 -17.550781 3.972656 -17.910156 4.671875 -18.171875 C 5.378906 -18.441406 6.15625 -18.578125 7 -18.578125 C 7.882812 -18.578125 8.660156 -18.453125 9.328125 -18.203125 C 9.992188 -17.960938 10.554688 -17.65625 11.015625 -17.28125 C 11.472656 -16.90625 11.835938 -16.492188 12.109375 -16.046875 C 12.390625 -15.597656 12.597656 -15.179688 12.734375 -14.796875 L 10.15625 -13.703125 C 10.0625 -13.953125 9.9375 -14.207031 9.78125 -14.46875 C 9.625 -14.738281 9.414062 -14.972656 9.15625 -15.171875 C 8.90625 -15.378906 8.601562 -15.550781 8.25 -15.6875 C 7.90625 -15.820312 7.503906 -15.890625 7.046875 -15.890625 C 6.640625 -15.890625 6.257812 -15.832031 5.90625 -15.71875 C 5.550781 -15.613281 5.242188 -15.457031 4.984375 -15.25 C 4.722656 -15.050781 4.515625 -14.816406 4.359375 -14.546875 C 4.210938 -14.273438 4.140625 -13.976562 4.140625 -13.65625 C 4.140625 -13.007812 4.40625 -12.488281 4.9375 -12.09375 C 5.46875 -11.695312 6.25 -11.320312 7.28125 -10.96875 L 8.421875 -10.5625 C 9.128906 -10.320312 9.78125 -10.039062 10.375 -9.71875 C 10.96875 -9.394531 11.484375 -9.007812 11.921875 -8.5625 C 12.367188 -8.113281 12.710938 -7.59375 12.953125 -7 C 13.203125 -6.40625 13.328125 -5.722656 13.328125 -4.953125 C 13.328125 -4.003906 13.132812 -3.191406 12.75 -2.515625 C 12.375 -1.847656 11.890625 -1.296875 11.296875 -0.859375 C 10.703125 -0.421875 10.039062 -0.101562 9.3125 0.09375 C 8.582031 0.300781 7.875 0.40625 7.1875 0.40625 Z M 7.1875 0.40625 "/></g></g></g><g fill="#91108c" fill-opacity="1"><g transform="translate(210.584836, 47.632219)"><g><path d="M 4.6875 -15.421875 L 4.6875 -10.421875 L 12.078125 -10.421875 L 12.078125 -7.734375 L 4.6875 -7.734375 L 4.6875 -2.734375 L 12.890625 -2.734375 L 12.890625 0 L 1.828125 0 L 1.828125 -18.171875 L 12.890625 -18.171875 L 12.890625 -15.421875 Z M 4.6875 -15.421875 "/></g></g></g><g fill="#91108c" fill-opacity="1"><g transform="translate(224.791794, 47.632219)"><g><path d="M 1.828125 -18.171875 L 4.6875 -18.171875 L 4.6875 -2.734375 L 12.484375 -2.734375 L 12.484375 0 L 1.828125 0 Z M 1.828125 -18.171875 "/></g></g></g><g fill="#91108c" fill-opacity="1"><g transform="translate(237.882489, 47.632219)"><g><path d="M 1.828125 -18.171875 L 4.6875 -18.171875 L 4.6875 -2.734375 L 12.484375 -2.734375 L 12.484375 0 L 1.828125 0 Z M 1.828125 -18.171875 "/></g></g></g><g clip-path="url(#d95982859c)"><path fill="#4285f4" d="M 160.046875 23.964844 C 160.046875 24.246094 160.019531 24.523438 159.964844 24.800781 C 159.910156 25.078125 159.828125 25.34375 159.722656 25.605469 C 159.613281 25.867188 159.480469 26.113281 159.324219 26.347656 C 159.167969 26.582031 158.992188 26.796875 158.792969 26.996094 C 158.59375 27.195312 158.375 27.375 158.140625 27.53125 C 157.90625 27.6875 157.660156 27.820312 157.398438 27.929688 C 157.140625 28.035156 156.871094 28.117188 156.59375 28.171875 C 156.320312 28.226562 156.039062 28.253906 155.757812 28.253906 C 155.476562 28.253906 155.195312 28.226562 154.921875 28.171875 C 154.644531 28.117188 154.375 28.035156 154.117188 27.929688 C 153.855469 27.820312 153.609375 27.6875 153.375 27.53125 C 153.140625 27.375 152.921875 27.195312 152.722656 26.996094 C 152.523438 26.796875 152.347656 26.582031 152.191406 26.347656 C 152.035156 26.113281 151.902344 25.867188 151.792969 25.605469 C 151.6875 25.34375 151.605469 25.078125 151.550781 24.800781 C 151.496094 24.523438 151.464844 24.246094 151.464844 23.964844 C 151.464844 23.683594 151.496094 23.402344 151.550781 23.125 C 151.605469 22.851562 151.6875 22.582031 151.792969 22.320312 C 151.902344 22.0625 152.035156 21.8125 152.191406 21.578125 C 152.347656 21.34375 152.523438 21.128906 152.722656 20.929688 C 152.921875 20.730469 153.140625 20.550781 153.375 20.394531 C 153.609375 20.238281 153.855469 20.105469 154.117188 20 C 154.375 19.890625 154.644531 19.808594 154.921875 19.753906 C 155.195312 19.699219 155.476562 19.671875 155.757812 19.671875 C 156.039062 19.671875 156.320312 19.699219 156.59375 19.753906 C 156.871094 19.808594 157.140625 19.890625 157.398438 20 C 157.660156 20.105469 157.90625 20.238281 158.140625 20.394531 C 158.375 20.550781 158.59375 20.730469 158.792969 20.929688 C 158.992188 21.128906 159.167969 21.34375 159.324219 21.578125 C 159.480469 21.8125 159.613281 22.0625 159.722656 22.320312 C 159.828125 22.582031 159.910156 22.851562 159.964844 23.125 C 160.019531 23.402344 160.046875 23.683594 160.046875 23.964844 Z M 160.046875 23.964844 " fill-opacity="1" fill-rule="nonzero"/></g><g clip-path="url(#d4b159cd4c)"><path fill="#34a853" d="M 173.1875 23.964844 C 173.1875 24.246094 173.160156 24.523438 173.105469 24.800781 C 173.050781 25.078125 172.96875 25.34375 172.859375 25.605469 C 172.753906 25.867188 172.621094 26.113281 172.464844 26.347656 C 172.308594 26.582031 172.128906 26.796875 171.929688 26.996094 C 171.730469 27.195312 171.515625 27.375 171.28125 27.53125 C 171.046875 27.6875 170.800781 27.820312 170.539062 27.929688 C 170.277344 28.035156 170.011719 28.117188 169.734375 28.171875 C 169.457031 28.226562 169.179688 28.253906 168.898438 28.253906 C 168.613281 28.253906 168.335938 28.226562 168.058594 28.171875 C 167.78125 28.117188 167.515625 28.035156 167.253906 27.929688 C 166.996094 27.820312 166.746094 27.6875 166.511719 27.53125 C 166.277344 27.375 166.0625 27.195312 165.863281 26.996094 C 165.664062 26.796875 165.484375 26.582031 165.328125 26.347656 C 165.171875 26.113281 165.039062 25.867188 164.933594 25.605469 C 164.824219 25.34375 164.742188 25.078125 164.6875 24.800781 C 164.632812 24.523438 164.605469 24.246094 164.605469 23.964844 C 164.605469 23.683594 164.632812 23.402344 164.6875 23.125 C 164.742188 22.851562 164.824219 22.582031 164.933594 22.320312 C 165.039062 22.0625 165.171875 21.8125 165.328125 21.578125 C 165.484375 21.34375 165.664062 21.128906 165.863281 20.929688 C 166.0625 20.730469 166.277344 20.550781 166.511719 20.394531 C 166.746094 20.238281 166.996094 20.105469 167.253906 20 C 167.515625 19.890625 167.78125 19.808594 168.058594 19.753906 C 168.335938 19.699219 168.613281 19.671875 168.898438 19.671875 C 169.179688 19.671875 169.457031 19.699219 169.734375 19.753906 C 170.011719 19.808594 170.277344 19.890625 170.539062 20 C 170.800781 20.105469 171.046875 20.238281 171.28125 20.394531 C 171.515625 20.550781 171.730469 20.730469 171.929688 20.929688 C 172.128906 21.128906 172.308594 21.34375 172.464844 21.578125 C 172.621094 21.8125 172.753906 22.0625 172.859375 22.320312 C 172.96875 22.582031 173.050781 22.851562 173.105469 23.125 C 173.160156 23.402344 173.1875 23.683594 173.1875 23.964844 Z M 173.1875 23.964844 " fill-opacity="1" fill-rule="nonzero"/></g><g clip-path="url(#e74b95dd8b)"><path fill="#ea4335" d="M 186.328125 23.964844 C 186.328125 24.246094 186.300781 24.523438 186.242188 24.800781 C 186.1875 25.078125 186.109375 25.34375 186 25.605469 C 185.890625 25.867188 185.761719 26.113281 185.601562 26.347656 C 185.445312 26.582031 185.269531 26.796875 185.070312 26.996094 C 184.871094 27.195312 184.652344 27.375 184.417969 27.53125 C 184.183594 27.6875 183.9375 27.820312 183.675781 27.929688 C 183.417969 28.035156 183.148438 28.117188 182.871094 28.171875 C 182.597656 28.226562 182.316406 28.253906 182.035156 28.253906 C 181.753906 28.253906 181.476562 28.226562 181.199219 28.171875 C 180.921875 28.117188 180.652344 28.035156 180.394531 27.929688 C 180.132812 27.820312 179.886719 27.6875 179.652344 27.53125 C 179.417969 27.375 179.199219 27.195312 179 26.996094 C 178.800781 26.796875 178.625 26.582031 178.46875 26.347656 C 178.3125 26.113281 178.179688 25.867188 178.070312 25.605469 C 177.964844 25.34375 177.882812 25.078125 177.828125 24.800781 C 177.773438 24.523438 177.746094 24.246094 177.746094 23.964844 C 177.746094 23.683594 177.773438 23.402344 177.828125 23.125 C 177.882812 22.851562 177.964844 22.582031 178.070312 22.320312 C 178.179688 22.0625 178.3125 21.8125 178.46875 21.578125 C 178.625 21.34375 178.800781 21.128906 179 20.929688 C 179.199219 20.730469 179.417969 20.550781 179.652344 20.394531 C 179.886719 20.238281 180.132812 20.105469 180.394531 20 C 180.652344 19.890625 180.921875 19.808594 181.199219 19.753906 C 181.476562 19.699219 181.753906 19.671875 182.035156 19.671875 C 182.316406 19.671875 182.597656 19.699219 182.871094 19.753906 C 183.148438 19.808594 183.417969 19.890625 183.675781 20 C 183.9375 20.105469 184.183594 20.238281 184.417969 20.394531 C 184.652344 20.550781 184.871094 20.730469 185.070312 20.929688 C 185.269531 21.128906 185.445312 21.34375 185.601562 21.578125 C 185.761719 21.8125 185.890625 22.0625 186 22.320312 C 186.109375 22.582031 186.1875 22.851562 186.242188 23.125 C 186.300781 23.402344 186.328125 23.683594 186.328125 23.964844 Z M 186.328125 23.964844 " fill-opacity="1" fill-rule="nonzero"/></g></svg>